<svg xmlns="http://www.w3.org/2000/svg" xmlns:xlink="http://www.w3.org/1999/xlink" width="384" zoomAndPan="magnify" viewBox="0 0 288 217.499994" height="290" preserveAspectRatio="xMidYMid meet" version="1.0"><path fill="#ffffff" d="M 284.027344 62.414062 C 282.070312 57.15625 277.371094 53.195312 271.941406 51.921875 C 263.734375 49.917969 255.242188 51.839844 247.316406 54.070312 C 241.933594 42.464844 236.683594 30.773438 231.253906 19.191406 C 230.449219 17.152344 228.609375 15.84375 226.605469 15.160156 C 213.246094 9.796875 199.140625 6.492188 184.902344 4.511719 C 143.3125 -0.746094 100.964844 4.054688 60.503906 14.328125 C 57.101562 14.882812 54.089844 17.148438 52.757812 20.328125 C 47.289062 32.308594 41.824219 44.285156 36.347656 56.261719 C 31.304688 55.003906 26.242188 53.476562 21.019531 53.214844 C 13.703125 53.320312 8.636719 59.816406 5.929688 65.960938 C 3.878906 71.121094 1.066406 76.839844 3.109375 82.457031 C 5.425781 89.367188 12.007812 93.488281 18.171875 96.617188 C 14.222656 105.714844 10.84375 115.125 8.550781 124.785156 C 8.503906 137.546875 10.367188 150.277344 10.054688 163.0625 C 10.378906 177.886719 10.066406 192.722656 10.222656 207.554688 C 10.019531 211.984375 14.054688 216.230469 18.570312 215.894531 C 30.199219 215.882812 41.84375 215.945312 53.480469 215.882812 C 57.964844 216.21875 61.941406 211.984375 61.75 207.589844 C 61.855469 202.019531 61.722656 196.4375 61.785156 190.859375 C 116.183594 197.136719 171.082031 193.34375 225.515625 189.425781 C 225.597656 195.8125 225.382812 202.199219 225.597656 208.582031 C 225.800781 212.578125 229.515625 216.15625 233.589844 215.878906 C 245.265625 215.890625 256.945312 215.941406 268.609375 215.878906 C 273.148438 216.167969 277.363281 211.980469 277.066406 207.441406 C 277.210938 176.273438 277.386719 145.066406 275.082031 113.96875 C 272.839844 106.882812 268.8125 100.488281 265.84375 93.679688 C 273.066406 91.832031 281.003906 89.023438 284.945312 82.207031 C 288.390625 75.996094 286.402344 68.628906 284.027344 62.414062 Z M 43.996094 150.90625 C 36.941406 146.425781 32.738281 137.871094 33.605469 129.5625 C 34.445312 120.378906 41.339844 112.050781 50.328125 109.785156 C 57.417969 107.78125 65.441406 109.390625 71.121094 114.105469 C 76.660156 118.679688 79.9375 125.941406 79.4375 133.140625 C 78.953125 141.230469 73.828125 148.902344 66.449219 152.308594 C 59.386719 155.730469 50.589844 155.117188 43.996094 150.90625 Z M 207.574219 129.347656 C 208.417969 120.515625 214.941406 112.484375 223.480469 109.976562 C 230.015625 107.921875 237.429688 108.992188 243.171875 112.710938 C 249.753906 117.09375 253.898438 125.027344 253.371094 132.960938 C 253.074219 139.226562 249.933594 145.226562 245.164062 149.257812 C 238.414062 154.914062 228.296875 156.160156 220.394531 152.269531 C 211.875 148.324219 206.453125 138.675781 207.574219 129.347656 Z M 65.753906 28.722656 C 93.507812 21.847656 122.039062 17.667969 150.675781 17.621094 C 173.667969 17.632812 196.882812 20.476562 218.589844 28.335938 C 223.441406 39.101562 228.292969 49.867188 233.125 60.644531 C 173.175781 71.984375 111.136719 71.867188 51.238281 60.261719 C 56.058594 49.738281 60.921875 39.234375 65.753906 28.722656 Z M 46.519531 200.292969 C 39.496094 200.292969 32.476562 200.253906 25.460938 200.292969 C 25.460938 195.347656 25.460938 190.398438 25.460938 185.457031 C 32.175781 188.023438 39.363281 189.019531 46.519531 189.082031 C 46.519531 192.8125 46.519531 196.558594 46.519531 200.292969 Z M 261.464844 200.292969 C 254.570312 200.292969 247.660156 200.292969 240.765625 200.292969 C 240.765625 196.308594 240.765625 192.335938 240.765625 188.359375 C 247.988281 187.964844 255.425781 186.820312 261.476562 182.597656 C 261.441406 188.496094 261.476562 194.386719 261.464844 200.292969 Z M 261.464844 200.292969 " fill-opacity="1" fill-rule="nonzero"/></svg>